<?xml version="1.0" standalone="no"?>
<!DOCTYPE svg PUBLIC "-//W3C//DTD SVG 20010904//EN"
 "http://www.w3.org/TR/2001/REC-SVG-20010904/DTD/svg10.dtd">
<svg version="1.0" xmlns="http://www.w3.org/2000/svg"
 width="504.000000pt" height="158.000000pt" viewBox="0 0 504.000000 158.000000"
 preserveAspectRatio="xMidYMid meet">

<g transform="translate(0.000000,158.000000) scale(0.100000,-0.100000)"
fill="#000000" stroke="none">
<path d="M1293 1543 c9 -2 25 -2 35 0 9 3 1 5 -18 5 -19 0 -27 -2 -17 -5z"/>
<path d="M1408 1543 c6 -2 18 -2 25 0 6 3 1 5 -13 5 -14 0 -19 -2 -12 -5z"/>
<path d="M1178 1523 c7 -3 16 -2 19 1 4 3 -2 6 -13 5 -11 0 -14 -3 -6 -6z"/>
<path d="M3410 1490 c-5 -3 8 -6 30 -7 22 -1 42 1 44 6 6 8 -60 10 -74 1z"/>
<path d="M3501 1481 c-10 -7 -7 -9 12 -8 14 1 23 5 20 10 -6 9 -15 9 -32 -2z"/>
<path d="M780 1470 c-21 -7 -21 -8 -5 -9 11 0 27 4 35 9 18 11 5 11 -30 0z"/>
<path d="M3320 1450 c-8 -5 -10 -10 -5 -10 6 0 17 5 25 10 8 5 11 10 5 10 -5
0 -17 -5 -25 -10z"/>
<path d="M3526 1447 c3 -10 9 -15 12 -12 3 3 0 11 -7 18 -10 9 -11 8 -5 -6z"/>
<path d="M3546 1428 c-3 -13 -5 -32 -5 -43 1 -11 5 -2 10 19 10 42 6 62 -5 24z"/>
<path d="M2021 1424 c0 -11 3 -14 6 -6 3 7 2 16 -1 19 -3 4 -6 -2 -5 -13z"/>
<path d="M3269 1423 c-13 -17 -13 -17 6 -3 11 8 22 16 24 17 2 2 0 3 -6 3 -6
0 -17 -8 -24 -17z"/>
<path d="M3116 1332 c-3 -5 1 -9 9 -9 8 0 12 4 9 9 -3 4 -7 8 -9 8 -2 0 -6 -4
-9 -8z"/>
<path d="M3526 1325 c-3 -9 -6 -24 -5 -33 0 -9 5 -4 10 12 9 32 6 48 -5 21z"/>
<path d="M4267 1333 c-4 -3 -7 -11 -7 -17 0 -6 5 -5 12 2 6 6 9 14 7 17 -3 3
-9 2 -12 -2z"/>
<path d="M1987 1311 c3 -10 -2 -32 -11 -49 -23 -44 -19 -54 4 -12 21 38 25 66
11 74 -5 4 -7 -2 -4 -13z"/>
<path d="M681 1294 c0 -11 3 -14 6 -6 3 7 2 16 -1 19 -3 4 -6 -2 -5 -13z"/>
<path d="M3089 1293 c-13 -16 -12 -17 4 -4 16 13 21 21 13 21 -2 0 -10 -8 -17
-17z"/>
<path d="M3033 1263 c-27 -28 -20 -30 13 -4 14 11 21 21 17 23 -4 3 -18 -6
-30 -19z"/>
<path d="M671 1254 c0 -11 3 -14 6 -6 3 7 2 16 -1 19 -3 4 -6 -2 -5 -13z"/>
<path d="M3510 1256 c0 -9 -4 -15 -9 -12 -5 4 -7 -3 -4 -13 3 -11 -4 -33 -16
-50 -27 -38 -27 -52 0 -17 22 28 44 94 35 104 -3 3 -6 -2 -6 -12z"/>
<path d="M4240 1251 c0 -6 4 -13 10 -16 6 -3 7 1 4 9 -7 18 -14 21 -14 7z"/>
<path d="M2980 1220 c-9 -6 -10 -10 -3 -10 6 0 15 5 18 10 8 12 4 12 -15 0z"/>
<path d="M640 1196 c0 -9 5 -16 10 -16 6 0 10 4 10 9 0 6 -4 13 -10 16 -5 3
-10 -1 -10 -9z"/>
<path d="M1946 1201 c-4 -5 -2 -20 3 -33 9 -21 9 -20 8 9 -2 36 -3 38 -11 24z"/>
<path d="M2925 1160 c4 -6 11 -8 16 -5 14 9 11 15 -7 15 -8 0 -12 -5 -9 -10z"/>
<path d="M1933 1128 c-4 -7 -8 -20 -10 -28 -1 -10 3 -9 13 4 14 19 18 36 10
36 -3 0 -8 -6 -13 -12z"/>
<path d="M2890 1125 c0 -8 2 -15 4 -15 2 0 6 7 10 15 3 8 1 15 -4 15 -6 0 -10
-7 -10 -15z"/>
<path d="M3442 1105 c-17 -37 -14 -45 4 -12 9 16 14 31 11 33 -2 2 -9 -7 -15
-21z"/>
<path d="M607 1076 c4 -22 3 -27 -7 -21 -9 6 -11 4 -5 -4 14 -24 30 5 17 31
-11 21 -11 21 -5 -6z"/>
<path d="M1907 1053 c-3 -10 -10 -33 -16 -52 -6 -19 -7 -30 -3 -25 12 14 35
85 29 90 -2 3 -7 -3 -10 -13z"/>
<path d="M3416 1057 c3 -10 9 -15 12 -12 3 3 0 11 -7 18 -10 9 -11 8 -5 -6z"/>
<path d="M591 1014 c0 -11 3 -14 6 -6 3 7 2 16 -1 19 -3 4 -6 -2 -5 -13z"/>
<path d="M2782 1010 c-12 -12 -22 -24 -22 -29 0 -4 -9 -18 -20 -31 -11 -13
-20 -28 -20 -33 0 -6 11 5 24 24 14 19 34 46 46 62 25 32 22 35 -8 7z"/>
<path d="M3384 1005 c-9 -14 -14 -28 -11 -31 3 -3 12 9 20 25 19 38 14 40 -9
6z"/>
<path d="M4275 979 c-4 -5 -11 -7 -16 -4 -5 3 -6 -2 -2 -11 5 -13 3 -15 -7 -9
-9 5 -11 4 -6 -3 4 -7 3 -12 -2 -12 -5 0 -17 -16 -28 -35 -10 -19 -22 -35 -26
-35 -5 0 -8 -6 -8 -12 1 -7 9 -3 19 10 11 12 27 22 37 22 9 0 14 3 11 7 -4 3
1 12 11 20 16 14 16 14 -3 8 -16 -5 -17 -4 -8 6 17 17 57 23 47 7 -4 -7 -3 -8
4 -4 6 4 9 13 5 21 -3 8 0 15 6 15 6 0 11 4 11 8 0 11 -39 12 -45 1z"/>
<path d="M567 963 c-4 -3 -7 -11 -7 -17 0 -6 5 -5 12 2 6 6 9 14 7 17 -3 3 -9
2 -12 -2z"/>
<path d="M1870 950 c-8 -5 -11 -12 -7 -16 4 -4 13 -2 19 4 15 15 7 24 -12 12z"/>
<path d="M3356 943 c-6 -14 -5 -15 5 -6 7 7 10 15 7 18 -3 3 -9 -2 -12 -12z"/>
<path d="M1115 930 c3 -5 8 -10 11 -10 2 0 4 5 4 10 0 6 -5 10 -11 10 -5 0 -7
-4 -4 -10z"/>
<path d="M1247 933 c-4 -3 -7 -15 -7 -25 0 -10 -4 -18 -9 -18 -5 0 -7 10 -5
23 l5 22 -12 -22 c-8 -15 -9 -30 -3 -44 9 -20 10 -20 23 8 7 15 17 36 22 46 9
16 -1 24 -14 10z"/>
<path d="M1960 926 c0 -17 16 -30 23 -19 3 5 -1 14 -9 21 -12 10 -14 10 -14
-2z"/>
<path d="M2547 923 c6 -16 5 -16 -10 -4 -15 12 -20 11 -37 -4 -11 -10 -20 -23
-20 -28 0 -6 9 0 20 13 11 13 23 20 27 17 3 -4 3 -7 -2 -7 -4 0 -2 -7 5 -15
10 -12 10 -18 -1 -32 -13 -17 -13 -17 10 -2 25 16 45 49 21 34 -9 -5 -10 -2
-6 13 4 11 2 23 -3 27 -7 4 -8 -1 -4 -12z"/>
<path d="M3945 930 c-4 -6 -11 -7 -17 -4 -7 5 -8 2 -3 -5 4 -8 -1 -19 -15 -28
-20 -14 -21 -17 -5 -25 9 -6 17 -8 19 -6 10 17 35 78 31 78 -2 0 -7 -5 -10
-10z"/>
<path d="M747 905 c-15 -14 -27 -30 -27 -35 0 -10 22 10 49 43 20 25 10 21
-22 -8z"/>
<path d="M791 916 c-7 -9 -8 -17 -2 -20 5 -3 12 0 14 6 4 9 6 8 6 -2 1 -9 -4
-21 -9 -26 -7 -7 -4 -16 10 -29 11 -10 20 -13 20 -7 0 6 -6 12 -12 15 -10 3
-10 7 0 20 12 14 11 19 -1 37 -12 17 -16 18 -26 6z"/>
<path d="M1582 919 c-26 -10 -25 -31 1 -35 9 -1 16 1 16 4 -3 21 2 32 13 26 7
-4 8 -3 4 4 -4 7 -8 12 -9 11 -1 0 -13 -4 -25 -10z"/>
<path d="M3612 906 c-10 -14 -23 -22 -27 -18 -5 4 -5 1 -1 -6 6 -11 15 -8 36
13 l27 26 6 -22 c4 -13 1 -30 -5 -38 -10 -13 -10 -14 2 -4 9 8 18 9 25 3 9 -7
11 -2 10 20 -2 34 -3 35 -31 44 -16 5 -27 0 -42 -18z"/>
<path d="M4130 910 c0 -11 2 -20 4 -20 2 0 6 9 9 20 3 11 1 20 -4 20 -5 0 -9
-9 -9 -20z"/>
<path d="M4496 914 c-4 -12 -1 -14 14 -9 24 8 26 -8 4 -30 -18 -18 -12 -45 11
-45 18 0 20 11 4 27 -7 7 -5 15 7 27 15 16 15 18 -2 31 -24 19 -31 18 -38 -1z"/>
<path d="M4692 905 c0 -16 2 -22 5 -12 2 9 2 23 0 30 -3 6 -5 -1 -5 -18z"/>
<path d="M1086 901 c-10 -11 -22 -18 -26 -16 -4 3 -10 -2 -14 -10 -3 -9 0 -15
8 -15 8 0 16 -4 18 -10 2 -6 8 -6 18 0 12 8 13 11 1 19 -15 10 2 26 18 17 5
-3 12 1 15 10 3 8 2 13 -3 9 -5 -3 -11 0 -13 6 -2 6 -12 2 -22 -10z"/>
<path d="M1403 908 c-6 -7 -18 -27 -26 -44 -14 -26 -14 -31 -1 -31 8 0 13 7
12 16 -4 18 21 25 42 11 13 -9 13 -11 0 -19 -8 -6 -11 -13 -7 -18 5 -4 12 -1
17 7 14 22 12 28 -10 40 -11 6 -20 16 -20 22 0 9 3 9 12 0 15 -15 38 -16 38 0
0 6 -3 8 -7 5 -3 -4 -14 0 -23 8 -14 12 -19 13 -27 3z"/>
<path d="M1667 903 c3 -7 9 -10 14 -7 5 3 9 0 9 -7 0 -7 2 -10 5 -7 9 9 -5 35
-19 35 -8 0 -12 -6 -9 -14z"/>
<path d="M1848 895 c-4 -18 -1 -21 16 -17 18 5 18 4 6 -10 -8 -9 -22 -13 -30
-11 -13 4 -13 3 -1 -5 10 -7 21 -7 32 -1 29 15 30 25 5 47 l-24 20 -4 -23z"/>
<path d="M551 903 c-1 -6 -4 -20 -7 -30 -5 -17 -5 -17 6 0 6 10 9 23 6 30 -3
9 -5 9 -5 0z"/>
<path d="M4453 882 c-13 -15 -23 -33 -23 -39 0 -7 -7 -13 -15 -13 -12 0 -13
-4 -3 -25 14 -31 28 -33 21 -2 -5 22 -5 22 11 2 15 -19 15 -18 5 13 -10 29 -9
36 12 58 12 13 20 26 18 28 -2 3 -14 -8 -26 -22z"/>
<path d="M4766 902 c-2 -4 4 -8 14 -8 10 0 16 4 14 8 -3 4 -9 8 -14 8 -5 0
-11 -4 -14 -8z"/>
<path d="M4967 897 c3 -4 -3 -14 -13 -22 -11 -7 -16 -16 -13 -19 3 -3 17 7 32
22 24 25 25 28 8 28 -11 0 -17 -4 -14 -9z"/>
<path d="M967 893 c-4 -3 -7 -11 -7 -17 0 -6 5 -5 12 2 6 6 9 14 7 17 -3 3 -9
2 -12 -2z"/>
<path d="M1173 888 c-16 -26 -12 -38 8 -28 10 6 19 15 19 20 0 15 -18 21 -27
8z m17 -8 c0 -5 -5 -10 -11 -10 -5 0 -7 5 -4 10 3 6 8 10 11 10 2 0 4 -4 4
-10z"/>
<path d="M3820 894 c0 -3 7 -12 15 -20 12 -12 15 -12 15 -2 0 10 3 9 10 -2 5
-8 10 -10 10 -4 0 14 -21 34 -37 34 -7 0 -13 -3 -13 -6z"/>
<path d="M1657 866 c3 -14 12 -31 21 -38 13 -11 14 -11 8 0 -4 7 -2 20 5 30 7
9 9 14 4 9 -4 -4 -16 0 -25 8 -16 14 -17 14 -13 -9z"/>
<path d="M2282 865 c-12 -14 -17 -25 -11 -25 5 0 7 -6 3 -12 -4 -7 2 -4 13 7
11 11 19 23 16 28 -2 4 1 7 6 7 6 0 11 5 11 10 0 17 -15 11 -38 -15z"/>
<path d="M3316 873 c-6 -14 -5 -15 5 -6 7 7 10 15 7 18 -3 3 -9 -2 -12 -12z"/>
<path d="M2249 863 c-13 -16 -12 -17 4 -4 16 13 21 21 13 21 -2 0 -10 -8 -17
-17z"/>
<path d="M4220 869 c0 -5 5 -7 10 -4 6 3 10 8 10 11 0 2 -4 4 -10 4 -5 0 -10
-5 -10 -11z"/>
<path d="M4741 877 c2 -1 12 -9 22 -16 15 -12 17 -12 11 3 -3 9 -13 16 -22 16
-8 0 -13 -1 -11 -3z"/>
<path d="M2153 850 c1 -21 10 -18 13 5 1 8 -2 15 -6 15 -5 0 -8 -9 -7 -20z"/>
<path d="M2469 858 c-1 -7 -2 -27 -3 -45 -1 -29 0 -31 17 -16 9 9 17 21 17 27
0 6 -4 5 -9 -2 -7 -11 -9 -11 -14 2 -4 9 -4 23 -1 31 4 8 3 15 0 15 -3 0 -7
-6 -7 -12z"/>
<path d="M2680 850 c0 -5 5 -10 11 -10 5 0 7 5 4 10 -3 6 -8 10 -11 10 -2 0
-4 -4 -4 -10z"/>
<path d="M3575 838 c-4 -15 -2 -35 4 -45 9 -15 10 -13 5 12 -6 28 -5 29 8 11
11 -14 17 -16 22 -7 5 7 5 15 2 18 -3 4 -6 0 -7 -8 0 -8 -7 0 -14 16 l-13 30
-7 -27z"/>
<path d="M4070 839 c-7 -11 -10 -23 -7 -25 2 -2 9 7 15 21 14 30 7 33 -8 4z"/>
<path d="M4145 853 c-17 -3 -40 -40 -44 -68 0 -3 -7 -21 -15 -40 -8 -19 -11
-35 -7 -35 5 0 11 10 15 23 3 12 14 32 26 44 22 24 27 38 8 27 -8 -5 -9 -2 -5
10 4 10 7 21 7 24 0 4 5 0 10 -8 9 -13 10 -13 10 0 0 13 1 13 10 0 8 -12 10
-11 10 8 0 12 -1 21 -2 21 -2 -1 -12 -4 -23 -6z"/>
<path d="M717 843 c-13 -12 -7 -50 7 -50 8 0 14 5 13 11 -1 6 4 10 11 8 8 -1
11 2 7 7 -3 6 -13 7 -22 4 -12 -5 -15 -2 -10 10 7 18 5 21 -6 10z"/>
<path d="M1827 824 c3 -7 9 -14 14 -14 14 0 10 17 -5 23 -10 4 -13 1 -9 -9z"/>
<path d="M1950 820 c-6 -12 -9 -24 -7 -27 3 -2 11 5 17 17 6 12 9 24 7 27 -3
2 -11 -5 -17 -17z"/>
<path d="M2226 823 c-6 -14 -5 -15 5 -6 7 7 10 15 7 18 -3 3 -9 -2 -12 -12z"/>
<path d="M2440 835 c0 -5 5 -17 10 -25 5 -8 10 -10 10 -5 0 6 -5 17 -10 25 -5
8 -10 11 -10 5z"/>
<path d="M2661 824 c0 -11 3 -14 6 -6 3 7 2 16 -1 19 -3 4 -6 -2 -5 -13z"/>
<path d="M4750 818 c-12 -22 -12 -22 6 -6 10 10 15 20 12 24 -4 3 -12 -5 -18
-18z"/>
<path d="M1741 814 c0 -11 3 -14 6 -6 3 7 2 16 -1 19 -3 4 -6 -2 -5 -13z"/>
<path d="M3905 819 c-4 -6 -5 -12 -2 -15 2 -3 7 2 10 11 7 17 1 20 -8 4z"/>
<path d="M1647 808 c-2 -7 3 -18 12 -25 14 -10 14 -15 3 -34 -11 -17 -11 -24
-1 -33 9 -8 11 -7 6 6 -3 10 4 27 19 43 14 15 24 28 22 30 -7 5 -47 25 -52 25
-2 0 -6 -6 -9 -12z m33 -19 c0 -6 -4 -7 -10 -4 -5 3 -10 11 -10 16 0 6 5 7 10
4 6 -3 10 -11 10 -16z"/>
<path d="M2140 809 c0 -5 -4 -7 -10 -4 -7 4 -7 -3 0 -20 10 -27 6 -45 -11 -45
-5 0 -9 5 -9 11 0 5 5 7 10 4 6 -3 10 -2 10 3 0 14 -11 21 -26 15 -10 -4 -11
-10 -3 -24 5 -11 7 -25 3 -31 -4 -6 4 -3 19 8 20 15 25 27 24 57 -1 20 -3 37
-4 37 -2 0 -3 -5 -3 -11z"/>
<path d="M935 793 c-5 -10 -9 -34 -11 -53 l-2 -35 13 29 c7 16 14 24 16 18 2
-6 14 0 27 15 15 17 17 23 7 19 -9 -3 -18 1 -21 9 -8 20 -20 19 -29 -2z m30
-12 c3 -5 1 -12 -5 -16 -5 -3 -10 0 -10 7 0 9 -3 9 -10 -2 -5 -8 -10 -10 -10
-4 0 22 24 32 35 15z"/>
<path d="M1356 795 c-3 -9 -6 -24 -5 -33 0 -9 5 -4 10 12 9 32 6 48 -5 21z"/>
<path d="M1427 790 c-3 -11 -1 -20 4 -20 5 0 9 9 9 20 0 11 -2 20 -4 20 -2 0
-6 -9 -9 -20z"/>
<path d="M1814 790 c0 -13 4 -16 10 -10 7 7 7 13 0 20 -6 6 -10 3 -10 -10z"/>
<path d="M2266 793 c-6 -14 -5 -15 5 -6 7 7 10 15 7 18 -3 3 -9 -2 -12 -12z"/>
<path d="M4516 783 c-6 -14 -5 -15 5 -6 7 7 10 15 7 18 -3 3 -9 -2 -12 -12z"/>
<path d="M4861 779 c-13 -11 -22 -22 -19 -24 3 -3 17 6 32 20 32 30 22 33 -13
4z"/>
<path d="M1077 783 c-3 -3 -3 -12 1 -21 5 -14 3 -15 -10 -4 -13 10 -16 9 -21
-8 -3 -11 -1 -18 4 -14 5 3 9 -2 9 -10 0 -9 5 -16 11 -16 5 0 8 4 5 9 -7 10
18 63 29 61 4 -1 8 0 10 2 2 2 -4 4 -14 5 -11 1 -21 -1 -24 -4z"/>
<path d="M2640 781 c0 -5 5 -13 10 -16 6 -3 10 -2 10 4 0 5 -4 13 -10 16 -5 3
-10 2 -10 -4z"/>
<path d="M1585 770 c-13 -6 -15 -9 -5 -9 8 0 22 4 30 9 18 12 2 12 -25 0z"/>
<path d="M1926 765 c-9 -26 -7 -32 5 -12 6 10 9 21 6 23 -2 3 -7 -2 -11 -11z"/>
<path d="M1625 721 c-3 -6 0 -11 7 -11 10 0 10 -2 -1 -9 -9 -6 -10 -11 -2 -15
6 -4 11 -1 11 6 0 9 3 9 10 -2 5 -8 10 -10 10 -5 -1 19 -28 47 -35 36z"/>
<path d="M2314 704 c-12 -13 -20 -25 -17 -28 3 -3 15 6 25 20 26 32 20 37 -8
8z"/>
<path d="M485 699 c-4 -6 -5 -12 -2 -15 2 -3 7 2 10 11 7 17 1 20 -8 4z"/>
<path d="M4315 700 c-3 -6 1 -7 9 -4 18 7 21 14 7 14 -6 0 -13 -4 -16 -10z"/>
<path d="M1206 675 c-9 -26 -7 -32 5 -12 6 10 9 21 6 23 -2 3 -7 -2 -11 -11z"/>
<path d="M1581 674 c0 -11 3 -14 6 -6 3 7 2 16 -1 19 -3 4 -6 -2 -5 -13z"/>
<path d="M2945 680 c-8 -13 5 -13 25 0 13 8 13 10 -2 10 -9 0 -20 -4 -23 -10z"/>
<path d="M3158 683 c7 -3 16 -2 19 1 4 3 -2 6 -13 5 -11 0 -14 -3 -6 -6z"/>
<path d="M1901 664 c0 -11 3 -14 6 -6 3 7 2 16 -1 19 -3 4 -6 -2 -5 -13z"/>
<path d="M2778 663 c6 -2 18 -2 25 0 6 3 1 5 -13 5 -14 0 -19 -2 -12 -5z"/>
<path d="M3199 661 c11 -7 9 -13 -8 -30 -11 -11 -17 -21 -13 -21 5 0 17 9 27
20 10 11 28 20 39 21 21 0 21 1 1 9 -28 12 -65 13 -46 1z"/>
<path d="M3880 660 c0 -5 5 -10 10 -10 6 0 10 5 10 10 0 6 -4 10 -10 10 -5 0
-10 -4 -10 -10z"/>
<path d="M4725 660 c3 -5 8 -10 11 -10 2 0 4 5 4 10 0 6 -5 10 -11 10 -5 0 -7
-4 -4 -10z"/>
<path d="M471 644 c0 -11 3 -14 6 -6 3 7 2 16 -1 19 -3 4 -6 -2 -5 -13z"/>
<path d="M1147 640 c-3 -11 0 -23 5 -27 6 -3 8 -1 4 5 -3 6 -2 13 4 17 5 3 10
0 10 -7 0 -10 3 -9 10 2 6 9 5 17 -3 22 -19 12 -24 10 -30 -12z"/>
<path d="M1636 645 c-9 -26 -7 -32 5 -12 6 10 9 21 6 23 -2 3 -7 -2 -11 -11z"/>
<path d="M2275 649 c-4 -6 -5 -12 -2 -15 2 -3 7 2 10 11 7 17 1 20 -8 4z"/>
<path d="M1886 625 c-9 -26 -7 -32 5 -12 6 10 9 21 6 23 -2 3 -7 -2 -11 -11z"/>
<path d="M1995 619 c-4 -6 -5 -12 -2 -15 2 -3 7 2 10 11 7 17 1 20 -8 4z"/>
<path d="M3285 609 c-4 -6 -5 -12 -2 -15 2 -3 7 2 10 11 7 17 1 20 -8 4z"/>
<path d="M2196 595 c-3 -8 -1 -15 4 -15 6 0 10 7 10 15 0 8 -2 15 -4 15 -2 0
-6 -7 -10 -15z"/>
<path d="M442 561 c-6 -17 -7 -31 -3 -31 8 0 22 52 16 58 -1 2 -7 -11 -13 -27z"/>
<path d="M1948 545 c-24 -33 -23 -43 2 -15 11 13 20 27 20 32 0 12 -3 10 -22
-17z"/>
<path d="M3105 562 c3 -3 0 -11 -6 -19 -14 -16 3 -17 19 -1 16 16 15 25 -3 25
-8 0 -13 -3 -10 -5z"/>
<path d="M1607 553 c-4 -3 -7 -11 -7 -17 0 -6 5 -5 12 2 6 6 9 14 7 17 -3 3
-9 2 -12 -2z"/>
<path d="M1415 515 c-19 -20 -35 -41 -35 -47 0 -6 -7 -19 -16 -29 -12 -13 -12
-19 -3 -25 7 -4 10 -3 5 4 -3 6 -2 13 4 17 5 3 17 22 26 41 12 26 19 32 25 22
7 -10 9 -10 9 1 0 8 7 23 17 33 29 32 5 19 -32 -17z"/>
<path d="M3011 486 c-39 -40 -39 -50 -1 -36 3 1 7 2 10 2 7 0 25 21 29 33 2 6
8 9 14 7 6 -2 4 5 -4 14 -13 15 -12 16 10 9 16 -5 21 -4 17 4 -13 20 -31 12
-75 -33z m23 1 c-2 -7 -14 -19 -27 -26 -21 -13 -21 -12 2 13 27 29 33 32 25
13z"/>
<path d="M421 503 c-1 -6 -4 -20 -7 -30 -5 -17 -5 -17 6 0 6 10 9 23 6 30 -3
9 -5 9 -5 0z"/>
<path d="M3265 479 c-4 -6 -5 -12 -2 -15 2 -3 7 2 10 11 7 17 1 20 -8 4z"/>
<path d="M1860 443 c0 -7 4 -13 9 -13 5 0 13 6 19 13 8 10 6 13 -9 13 -10 0
-19 -6 -19 -13z"/>
<path d="M1842 430 c0 -14 2 -19 5 -12 2 6 2 18 0 25 -3 6 -5 1 -5 -13z"/>
<path d="M1547 421 c-4 -17 -3 -21 5 -13 5 5 8 16 6 23 -3 8 -7 3 -11 -10z"/>
<path d="M2945 390 c-4 -6 -18 -15 -31 -20 -13 -5 -24 -17 -24 -25 0 -9 -4
-14 -9 -11 -5 3 -14 -1 -21 -9 -8 -10 -9 -15 -2 -15 7 0 9 -7 5 -17 -5 -14 -3
-13 14 3 11 10 18 22 16 27 -2 4 0 7 6 7 6 0 8 7 4 16 -4 12 -2 15 8 12 15 -5
56 28 47 38 -3 3 -9 0 -13 -6z"/>
<path d="M1525 379 c-4 -6 -5 -12 -2 -15 2 -3 7 2 10 11 7 17 1 20 -8 4z"/>
<path d="M361 294 c0 -11 3 -14 6 -6 3 7 2 16 -1 19 -3 4 -6 -2 -5 -13z"/>
<path d="M2833 270 c-1 -11 2 -20 5 -20 4 0 8 9 9 20 1 11 -2 20 -5 20 -4 0
-8 -9 -9 -20z"/>
<path d="M2809 263 c-1 -5 -2 -12 -3 -18 0 -5 -5 -10 -9 -10 -9 0 -31 -34 -25
-40 1 -2 15 7 30 20 16 14 23 27 18 30 -6 4 -8 11 -5 16 4 5 4 9 1 9 -3 0 -7
-3 -7 -7z"/>
<path d="M3071 236 c-25 -26 -29 -36 -19 -41 7 -5 10 -4 5 0 -4 5 7 24 25 42
17 18 30 33 27 33 -3 0 -20 -15 -38 -34z"/>
<path d="M347 225 c-4 -8 -3 -16 1 -19 4 -3 9 4 9 15 2 23 -3 25 -10 4z"/>
<path d="M3009 183 c-13 -16 -12 -17 4 -4 16 13 21 21 13 21 -2 0 -10 -8 -17
-17z"/>
<path d="M2750 169 c0 -5 5 -7 10 -4 6 3 10 8 10 11 0 2 -4 4 -10 4 -5 0 -10
-5 -10 -11z"/>
<path d="M2730 129 c-7 -11 -9 -23 -6 -27 3 -3 6 0 6 7 0 7 4 10 8 7 4 -2 8 4
8 15 0 24 -3 24 -16 -2z"/>
<path d="M320 121 c0 -5 5 -13 10 -16 6 -3 10 -2 10 4 0 5 -4 13 -10 16 -5 3
-10 2 -10 -4z"/>
<path d="M311 51 c-10 -18 -10 -25 0 -35 9 -8 10 -8 4 3 -4 7 -2 17 5 21 7 4
10 14 8 21 -3 10 -9 7 -17 -10z"/>
</g>
</svg>
